<svg id="Layer_1" data-name="Layer 1" xmlns="http://www.w3.org/2000/svg" viewBox="0 0 244.9 158.93"><defs><style>.cls-1{fill:#fff;}.cls-2{fill:#f2cf29;}.cls-3{fill:#02bbd3;}</style></defs><title>lg-juntagalera</title><path class="cls-1" d="M65.65,141.25c4.57-.34,8.58-1.6,11-4.23,2.74-3.2,3.77-7.55,3.77-20.81V69.91H90.46V120.1c0,10.75-1.71,17.72-6.63,22.75-4.46,4.46-11.78,6.29-17.15,6.29Zm26-86.89a5.91,5.91,0,0,1-6.29,6.17,6,6,0,0,1-6.17-6.17,6.16,6.16,0,0,1,6.4-6.29A5.94,5.94,0,0,1,91.61,54.36Z" transform="translate(-65.65 -48.07)"/><path class="cls-1" d="M153.23,110.16c0,5.72.11,10.75.46,15.09h-8.92l-.57-9H144a20.82,20.82,0,0,1-18.29,10.29c-8.69,0-19.09-4.8-19.09-24.24V69.91h10.06v30.64c0,10.52,3.2,17.61,12.35,17.61A14.55,14.55,0,0,0,142.25,109a14.72,14.72,0,0,0,.91-5.15v-34h10.06Z" transform="translate(-65.65 -48.07)"/><path class="cls-1" d="M169.92,84.89c0-5.72-.11-10.4-.46-15h8.92l.57,9.15h.23c2.74-5.26,9.15-10.4,18.29-10.4,7.66,0,19.55,4.57,19.55,23.55v33H207V93.35c0-8.92-3.32-16.35-12.8-16.35a14.29,14.29,0,0,0-13.49,10.29A14.48,14.48,0,0,0,180,92v33.27H169.92Z" transform="translate(-65.65 -48.07)"/><path class="cls-1" d="M245,54V69.91h14.41v7.66H245v29.84c0,6.86,1.94,10.75,7.55,10.75a22.37,22.37,0,0,0,5.83-.69l.46,7.55a24.63,24.63,0,0,1-8.92,1.37c-4.69,0-8.46-1.49-10.86-4.23-2.86-3-3.89-7.89-3.89-14.41V77.57h-8.58V69.91h8.58V56.65Z" transform="translate(-65.65 -48.07)"/><path class="cls-1" d="M301.4,125.25l-.8-7h-.34a20.61,20.61,0,0,1-16.92,8.23c-11.21,0-16.92-7.89-16.92-15.89,0-13.38,11.89-20.69,33.27-20.58V88.89c0-4.57-1.26-12.81-12.58-12.81A27.57,27.57,0,0,0,272.7,80.2l-2.29-6.63a34.35,34.35,0,0,1,18.18-4.92c16.92,0,21,11.55,21,22.64V112a77.86,77.86,0,0,0,.92,13.26ZM299.91,97c-11-.23-23.44,1.72-23.44,12.46,0,6.52,4.34,9.6,9.49,9.6a13.77,13.77,0,0,0,13.38-9.26,10.51,10.51,0,0,0,.57-3.2Z" transform="translate(-65.65 -48.07)"/><path class="cls-2" d="M78,179.35H66V171H78V159h8.29V171h12v8.39h-12v12H78Z" transform="translate(-65.65 -48.07)"/><path class="cls-3" d="M121.28,206.39a22.91,22.91,0,0,1-5.45-1.64v-6.81a29.74,29.74,0,0,0,12,2.32q6,0,8.62-2.52t2.62-7.5v-2.11a15.08,15.08,0,0,1-5.52,3.17,21.86,21.86,0,0,1-6.88,1.06,18.34,18.34,0,0,1-9-2.21A15.88,15.88,0,0,1,111.4,184a19.59,19.59,0,0,1,0-18.16,15.43,15.43,0,0,1,6.13-6.06,18.2,18.2,0,0,1,8.89-2.15,20.41,20.41,0,0,1,7.16,1.12,17.77,17.77,0,0,1,5.79,3.71v-3.82h8.31v30.73q0,8.45-4.87,13.05t-15,4.6A35.45,35.45,0,0,1,121.28,206.39Zm13.8-22.8a10.21,10.21,0,0,0,4-5.35v-6.61a10.47,10.47,0,0,0-4-5.32,11.24,11.24,0,0,0-6.54-2,10.47,10.47,0,0,0-7.63,2.93,10.2,10.2,0,0,0-3,7.63,10.27,10.27,0,0,0,10.63,10.7A11.26,11.26,0,0,0,135.08,183.59Z" transform="translate(-65.65 -48.07)"/><path class="cls-3" d="M158.21,189.25a10.27,10.27,0,0,1-3.75-8.35,10.67,10.67,0,0,1,3.54-8.52q3.54-3.07,9.95-3.07a21.56,21.56,0,0,1,10.7,2.52v-.89q0-3.48-2.15-5t-6.92-1.57a30.57,30.57,0,0,0-5.93.58,23.58,23.58,0,0,0-5.18,1.6v-6.75a22.74,22.74,0,0,1,5.49-1.57,37.88,37.88,0,0,1,6.64-.61q8.52,0,12.61,3.65t4.09,10.12v20h-8.11v-3.2a14.89,14.89,0,0,1-4.8,3.13,17.55,17.55,0,0,1-6.58,1.09A14.57,14.57,0,0,1,158.21,189.25Zm16.9-4.29a8.32,8.32,0,0,0,3.54-3.1v-3.61a14.47,14.47,0,0,0-8.59-2.66q-6.88,0-6.88,5.32a4.53,4.53,0,0,0,1.74,3.88,8.28,8.28,0,0,0,5,1.29A11.7,11.7,0,0,0,175.12,185Z" transform="translate(-65.65 -48.07)"/><path class="cls-3" d="M195.15,141h8.59v50.36h-8.59Z" transform="translate(-65.65 -48.07)"/><path class="cls-3" d="M215.87,187.78q-5.32-4.56-5.32-12.74t4.7-12.74q4.7-4.7,13.42-4.7a20.4,20.4,0,0,1,9.78,2.18,14.59,14.59,0,0,1,6.1,6,17.84,17.84,0,0,1,2,8.62v4H218.73q.88,7.29,12.68,7.29a38.9,38.9,0,0,0,6.41-.54,28.94,28.94,0,0,0,5.72-1.5v6.61a28.26,28.26,0,0,1-6,1.57,43.65,43.65,0,0,1-7.26.61Q221.18,192.35,215.87,187.78Zm22.63-15.33a7.63,7.63,0,0,0-2.76-6,11.16,11.16,0,0,0-7.19-2.11,10.66,10.66,0,0,0-7.09,2.18,7.74,7.74,0,0,0-2.73,5.93Z" transform="translate(-65.65 -48.07)"/><path class="cls-3" d="M253.42,158.61h8.31v5.25a11.62,11.62,0,0,1,5.62-4,24.89,24.89,0,0,1,8.35-1.29v6.54a22.13,22.13,0,0,0-8.62,1.53,9.11,9.11,0,0,0-5.08,4.8v19.83h-8.59Z" transform="translate(-65.65 -48.07)"/><path class="cls-3" d="M280.47,189.25a10.27,10.27,0,0,1-3.75-8.35,10.67,10.67,0,0,1,3.54-8.52q3.54-3.07,10-3.07a21.55,21.55,0,0,1,10.7,2.52v-.89q0-3.48-2.15-5t-6.92-1.57a30.55,30.55,0,0,0-5.93.58,23.57,23.57,0,0,0-5.18,1.6v-6.75a22.74,22.74,0,0,1,5.49-1.57,37.86,37.86,0,0,1,6.64-.61q8.52,0,12.61,3.65t4.09,10.12v20h-8.11v-3.2a14.87,14.87,0,0,1-4.8,3.13,17.56,17.56,0,0,1-6.58,1.09A14.57,14.57,0,0,1,280.47,189.25Zm16.9-4.29a8.32,8.32,0,0,0,3.54-3.1v-3.61a14.47,14.47,0,0,0-8.59-2.66q-6.88,0-6.88,5.32a4.53,4.53,0,0,0,1.74,3.88,8.28,8.28,0,0,0,5,1.29A11.7,11.7,0,0,0,297.37,185Z" transform="translate(-65.65 -48.07)"/></svg>